<mxfile host="app.diagrams.net" modified="2023-10-20T12:20:08.565Z" agent="Mozilla/5.0 (Windows NT 10.0; Win64; x64; rv:109.0) Gecko/20100101 Firefox/118.0" etag="nJNlnJbMmZOiUdoxDDTv" version="22.0.5" type="device">
  <diagram name="Page-1" id="y5EkqkRGudmOyvRt5nkQ">
    <mxGraphModel dx="2412" dy="1926" grid="1" gridSize="10" guides="1" tooltips="1" connect="1" arrows="1" fold="1" page="1" pageScale="1" pageWidth="850" pageHeight="1100" math="0" shadow="0">
      <root>
        <mxCell id="0" />
        <mxCell id="1" parent="0" />
        <mxCell id="B72tMtw-QqEQN7ghL_KD-3" style="edgeStyle=orthogonalEdgeStyle;rounded=0;orthogonalLoop=1;jettySize=auto;html=1;" parent="1" source="B72tMtw-QqEQN7ghL_KD-1" target="B72tMtw-QqEQN7ghL_KD-4" edge="1">
          <mxGeometry relative="1" as="geometry">
            <mxPoint x="-60" y="180" as="targetPoint" />
          </mxGeometry>
        </mxCell>
        <mxCell id="B72tMtw-QqEQN7ghL_KD-1" value="Scan button" style="rounded=0;whiteSpace=wrap;html=1;fillColor=#dae8fc;strokeColor=#6c8ebf;" parent="1" vertex="1">
          <mxGeometry x="-280" y="150" width="120" height="60" as="geometry" />
        </mxCell>
        <mxCell id="B72tMtw-QqEQN7ghL_KD-19" style="edgeStyle=orthogonalEdgeStyle;rounded=0;orthogonalLoop=1;jettySize=auto;html=1;exitX=1;exitY=0.5;exitDx=0;exitDy=0;entryX=0;entryY=0.5;entryDx=0;entryDy=0;" parent="1" source="B72tMtw-QqEQN7ghL_KD-4" target="B72tMtw-QqEQN7ghL_KD-17" edge="1">
          <mxGeometry relative="1" as="geometry">
            <mxPoint x="60" y="180" as="sourcePoint" />
            <mxPoint x="180" y="180" as="targetPoint" />
          </mxGeometry>
        </mxCell>
        <mxCell id="B72tMtw-QqEQN7ghL_KD-20" value="connected" style="edgeLabel;html=1;align=center;verticalAlign=middle;resizable=0;points=[];" parent="B72tMtw-QqEQN7ghL_KD-19" vertex="1" connectable="0">
          <mxGeometry x="-0.1333" y="3" relative="1" as="geometry">
            <mxPoint as="offset" />
          </mxGeometry>
        </mxCell>
        <mxCell id="B72tMtw-QqEQN7ghL_KD-10" style="edgeStyle=orthogonalEdgeStyle;rounded=0;orthogonalLoop=1;jettySize=auto;html=1;entryX=0.5;entryY=0;entryDx=0;entryDy=0;" parent="1" source="B72tMtw-QqEQN7ghL_KD-4" target="B72tMtw-QqEQN7ghL_KD-9" edge="1">
          <mxGeometry relative="1" as="geometry" />
        </mxCell>
        <mxCell id="Y8i0nsSM6AcdfNey4lcR-1" value="fail" style="edgeLabel;html=1;align=center;verticalAlign=middle;resizable=0;points=[];" parent="B72tMtw-QqEQN7ghL_KD-10" vertex="1" connectable="0">
          <mxGeometry x="-0.28" y="1" relative="1" as="geometry">
            <mxPoint as="offset" />
          </mxGeometry>
        </mxCell>
        <mxCell id="B72tMtw-QqEQN7ghL_KD-4" value="Connect Yumi" style="ellipse;whiteSpace=wrap;html=1;fillColor=#fff2cc;strokeColor=#d6b656;" parent="1" vertex="1">
          <mxGeometry x="-60" y="140" width="120" height="80" as="geometry" />
        </mxCell>
        <mxCell id="B72tMtw-QqEQN7ghL_KD-9" value="Display log: fail" style="rounded=0;whiteSpace=wrap;html=1;fillColor=#dae8fc;strokeColor=#6c8ebf;" parent="1" vertex="1">
          <mxGeometry x="-60" y="270" width="120" height="60" as="geometry" />
        </mxCell>
        <mxCell id="B72tMtw-QqEQN7ghL_KD-22" style="edgeStyle=orthogonalEdgeStyle;rounded=0;orthogonalLoop=1;jettySize=auto;html=1;exitX=1;exitY=0.5;exitDx=0;exitDy=0;" parent="1" source="B72tMtw-QqEQN7ghL_KD-17" target="Y8i0nsSM6AcdfNey4lcR-3" edge="1">
          <mxGeometry relative="1" as="geometry">
            <mxPoint x="300" y="180" as="sourcePoint" />
            <mxPoint x="430" y="210" as="targetPoint" />
          </mxGeometry>
        </mxCell>
        <mxCell id="B72tMtw-QqEQN7ghL_KD-23" value="connected" style="edgeLabel;html=1;align=center;verticalAlign=middle;resizable=0;points=[];" parent="B72tMtw-QqEQN7ghL_KD-22" vertex="1" connectable="0">
          <mxGeometry x="-0.125" y="1" relative="1" as="geometry">
            <mxPoint as="offset" />
          </mxGeometry>
        </mxCell>
        <mxCell id="B72tMtw-QqEQN7ghL_KD-16" style="edgeStyle=orthogonalEdgeStyle;rounded=0;orthogonalLoop=1;jettySize=auto;html=1;entryX=0.5;entryY=0;entryDx=0;entryDy=0;" parent="1" source="B72tMtw-QqEQN7ghL_KD-17" target="B72tMtw-QqEQN7ghL_KD-18" edge="1">
          <mxGeometry relative="1" as="geometry" />
        </mxCell>
        <mxCell id="Y8i0nsSM6AcdfNey4lcR-2" value="fail" style="edgeLabel;html=1;align=center;verticalAlign=middle;resizable=0;points=[];" parent="B72tMtw-QqEQN7ghL_KD-16" vertex="1" connectable="0">
          <mxGeometry x="-0.48" y="-1" relative="1" as="geometry">
            <mxPoint as="offset" />
          </mxGeometry>
        </mxCell>
        <mxCell id="B72tMtw-QqEQN7ghL_KD-17" value="Connect Laser" style="ellipse;whiteSpace=wrap;html=1;fillColor=#fff2cc;strokeColor=#d6b656;" parent="1" vertex="1">
          <mxGeometry x="160" y="140" width="120" height="80" as="geometry" />
        </mxCell>
        <mxCell id="B72tMtw-QqEQN7ghL_KD-18" value="Display log: fail" style="rounded=0;whiteSpace=wrap;html=1;fillColor=#dae8fc;strokeColor=#6c8ebf;" parent="1" vertex="1">
          <mxGeometry x="160" y="270" width="120" height="60" as="geometry" />
        </mxCell>
        <mxCell id="B72tMtw-QqEQN7ghL_KD-25" style="edgeStyle=orthogonalEdgeStyle;rounded=0;orthogonalLoop=1;jettySize=auto;html=1;exitX=1;exitY=0.5;exitDx=0;exitDy=0;" parent="1" source="B72tMtw-QqEQN7ghL_KD-21" target="B72tMtw-QqEQN7ghL_KD-24" edge="1">
          <mxGeometry relative="1" as="geometry" />
        </mxCell>
        <mxCell id="B72tMtw-QqEQN7ghL_KD-21" value="Move Yumi to default position (Initial position)" style="ellipse;whiteSpace=wrap;html=1;fillColor=#d5e8d4;strokeColor=#82b366;" parent="1" vertex="1">
          <mxGeometry x="660" y="140" width="140" height="80" as="geometry" />
        </mxCell>
        <mxCell id="B72tMtw-QqEQN7ghL_KD-32" style="edgeStyle=orthogonalEdgeStyle;rounded=0;orthogonalLoop=1;jettySize=auto;html=1;entryX=0.5;entryY=0;entryDx=0;entryDy=0;" parent="1" source="B72tMtw-QqEQN7ghL_KD-24" target="B72tMtw-QqEQN7ghL_KD-26" edge="1">
          <mxGeometry relative="1" as="geometry" />
        </mxCell>
        <mxCell id="B72tMtw-QqEQN7ghL_KD-34" value="Not end of list" style="edgeLabel;html=1;align=center;verticalAlign=middle;resizable=0;points=[];" parent="B72tMtw-QqEQN7ghL_KD-32" vertex="1" connectable="0">
          <mxGeometry x="0.1333" y="3" relative="1" as="geometry">
            <mxPoint as="offset" />
          </mxGeometry>
        </mxCell>
        <mxCell id="B72tMtw-QqEQN7ghL_KD-24" value="read position value from the data set" style="ellipse;whiteSpace=wrap;html=1;fillColor=#fff2cc;strokeColor=#d6b656;" parent="1" vertex="1">
          <mxGeometry x="870" y="140" width="120" height="80" as="geometry" />
        </mxCell>
        <mxCell id="B72tMtw-QqEQN7ghL_KD-35" style="edgeStyle=orthogonalEdgeStyle;rounded=0;orthogonalLoop=1;jettySize=auto;html=1;entryX=0.5;entryY=0;entryDx=0;entryDy=0;" parent="1" source="B72tMtw-QqEQN7ghL_KD-26" target="B72tMtw-QqEQN7ghL_KD-31" edge="1">
          <mxGeometry relative="1" as="geometry" />
        </mxCell>
        <mxCell id="B72tMtw-QqEQN7ghL_KD-26" value="move end-effector to&amp;nbsp; the position" style="ellipse;whiteSpace=wrap;html=1;fillColor=#fff2cc;strokeColor=#d6b656;" parent="1" vertex="1">
          <mxGeometry x="870" y="280" width="120" height="80" as="geometry" />
        </mxCell>
        <mxCell id="B72tMtw-QqEQN7ghL_KD-28" value="3D reconstruction" style="ellipse;whiteSpace=wrap;html=1;fillColor=#dae8fc;strokeColor=#6c8ebf;" parent="1" vertex="1">
          <mxGeometry x="1450" y="140" width="120" height="80" as="geometry" />
        </mxCell>
        <mxCell id="Y8i0nsSM6AcdfNey4lcR-18" style="edgeStyle=orthogonalEdgeStyle;rounded=0;orthogonalLoop=1;jettySize=auto;html=1;entryX=0;entryY=0.5;entryDx=0;entryDy=0;exitX=0;exitY=0.5;exitDx=0;exitDy=0;" parent="1" source="B72tMtw-QqEQN7ghL_KD-31" target="B72tMtw-QqEQN7ghL_KD-24" edge="1">
          <mxGeometry relative="1" as="geometry">
            <mxPoint x="890" y="410" as="sourcePoint" />
            <mxPoint x="830" y="180" as="targetPoint" />
          </mxGeometry>
        </mxCell>
        <mxCell id="B72tMtw-QqEQN7ghL_KD-31" value="read laser data and store it" style="ellipse;whiteSpace=wrap;html=1;fillColor=#fff2cc;strokeColor=#d6b656;" parent="1" vertex="1">
          <mxGeometry x="870" y="410" width="120" height="80" as="geometry" />
        </mxCell>
        <mxCell id="Y8i0nsSM6AcdfNey4lcR-5" style="edgeStyle=orthogonalEdgeStyle;rounded=0;orthogonalLoop=1;jettySize=auto;html=1;entryX=0.5;entryY=0;entryDx=0;entryDy=0;" parent="1" source="B72tMtw-QqEQN7ghL_KD-37" target="Y8i0nsSM6AcdfNey4lcR-7" edge="1">
          <mxGeometry relative="1" as="geometry" />
        </mxCell>
        <mxCell id="Y8i0nsSM6AcdfNey4lcR-6" value="&lt;div&gt;circle_diamenter;&lt;/div&gt;&lt;div&gt;z_stepsize;&lt;/div&gt;&lt;div&gt;max_depth;&lt;/div&gt;&lt;div&gt;azimuthPoints&lt;/div&gt;" style="edgeLabel;html=1;align=center;verticalAlign=middle;resizable=0;points=[];" parent="Y8i0nsSM6AcdfNey4lcR-5" vertex="1" connectable="0">
          <mxGeometry x="-0.024" y="-1" relative="1" as="geometry">
            <mxPoint x="-41" y="-1" as="offset" />
          </mxGeometry>
        </mxCell>
        <mxCell id="B72tMtw-QqEQN7ghL_KD-37" value="User input" style="rounded=0;whiteSpace=wrap;html=1;fillColor=#dae8fc;strokeColor=#6c8ebf;" parent="1" vertex="1">
          <mxGeometry x="-280" y="-70" width="120" height="60" as="geometry" />
        </mxCell>
        <mxCell id="Y8i0nsSM6AcdfNey4lcR-19" style="edgeStyle=orthogonalEdgeStyle;rounded=0;orthogonalLoop=1;jettySize=auto;html=1;" parent="1" source="B72tMtw-QqEQN7ghL_KD-44" target="B72tMtw-QqEQN7ghL_KD-45" edge="1">
          <mxGeometry relative="1" as="geometry" />
        </mxCell>
        <mxCell id="B72tMtw-QqEQN7ghL_KD-44" value="Input button" style="rounded=0;whiteSpace=wrap;html=1;fillColor=#d5e8d4;strokeColor=#82b366;" parent="1" vertex="1">
          <mxGeometry x="-280" y="-190" width="120" height="60" as="geometry" />
        </mxCell>
        <mxCell id="B72tMtw-QqEQN7ghL_KD-45" value="read the x,y,z value and add them to table" style="ellipse;whiteSpace=wrap;html=1;fillColor=#d5e8d4;strokeColor=#82b366;" parent="1" vertex="1">
          <mxGeometry x="-40" y="-200" width="120" height="80" as="geometry" />
        </mxCell>
        <mxCell id="355qwk3pFSdDTDoqX-rl-5" style="edgeStyle=orthogonalEdgeStyle;rounded=0;orthogonalLoop=1;jettySize=auto;html=1;" parent="1" source="355qwk3pFSdDTDoqX-rl-3" target="355qwk3pFSdDTDoqX-rl-4" edge="1">
          <mxGeometry relative="1" as="geometry" />
        </mxCell>
        <mxCell id="355qwk3pFSdDTDoqX-rl-3" value="Save button" style="rounded=0;whiteSpace=wrap;html=1;fillColor=#dae8fc;strokeColor=#6c8ebf;" parent="1" vertex="1">
          <mxGeometry x="-290" y="420" width="120" height="60" as="geometry" />
        </mxCell>
        <mxCell id="355qwk3pFSdDTDoqX-rl-4" value="Save the laser data" style="ellipse;whiteSpace=wrap;html=1;fillColor=#dae8fc;strokeColor=#6c8ebf;" parent="1" vertex="1">
          <mxGeometry x="-50" y="410" width="120" height="80" as="geometry" />
        </mxCell>
        <mxCell id="355qwk3pFSdDTDoqX-rl-6" style="edgeStyle=orthogonalEdgeStyle;rounded=0;orthogonalLoop=1;jettySize=auto;html=1;" parent="1" source="355qwk3pFSdDTDoqX-rl-7" target="355qwk3pFSdDTDoqX-rl-8" edge="1">
          <mxGeometry relative="1" as="geometry" />
        </mxCell>
        <mxCell id="355qwk3pFSdDTDoqX-rl-7" value="Load&amp;nbsp; button" style="rounded=0;whiteSpace=wrap;html=1;fillColor=#dae8fc;strokeColor=#6c8ebf;" parent="1" vertex="1">
          <mxGeometry x="-290" y="530" width="120" height="60" as="geometry" />
        </mxCell>
        <mxCell id="355qwk3pFSdDTDoqX-rl-8" value="Load the laser data" style="ellipse;whiteSpace=wrap;html=1;fillColor=#dae8fc;strokeColor=#6c8ebf;" parent="1" vertex="1">
          <mxGeometry x="-50" y="520" width="120" height="80" as="geometry" />
        </mxCell>
        <mxCell id="355qwk3pFSdDTDoqX-rl-11" style="edgeStyle=orthogonalEdgeStyle;rounded=0;orthogonalLoop=1;jettySize=auto;html=1;" parent="1" source="355qwk3pFSdDTDoqX-rl-9" target="355qwk3pFSdDTDoqX-rl-10" edge="1">
          <mxGeometry relative="1" as="geometry" />
        </mxCell>
        <mxCell id="355qwk3pFSdDTDoqX-rl-9" value="X, Y,&amp;nbsp; Z (Up and down)&lt;br&gt;button&lt;br&gt; " style="rounded=0;whiteSpace=wrap;html=1;" parent="1" vertex="1">
          <mxGeometry x="-290" y="650" width="120" height="60" as="geometry" />
        </mxCell>
        <mxCell id="355qwk3pFSdDTDoqX-rl-10" value="small movement of Yumi" style="ellipse;whiteSpace=wrap;html=1;" parent="1" vertex="1">
          <mxGeometry x="-50" y="640" width="120" height="80" as="geometry" />
        </mxCell>
        <mxCell id="355qwk3pFSdDTDoqX-rl-14" style="edgeStyle=orthogonalEdgeStyle;rounded=0;orthogonalLoop=1;jettySize=auto;html=1;entryX=0;entryY=0.5;entryDx=0;entryDy=0;" parent="1" source="355qwk3pFSdDTDoqX-rl-12" target="355qwk3pFSdDTDoqX-rl-13" edge="1">
          <mxGeometry relative="1" as="geometry" />
        </mxCell>
        <mxCell id="355qwk3pFSdDTDoqX-rl-12" value="&lt;div&gt;Calibration button&lt;/div&gt;" style="rounded=0;whiteSpace=wrap;html=1;" parent="1" vertex="1">
          <mxGeometry x="-290" y="750" width="120" height="60" as="geometry" />
        </mxCell>
        <mxCell id="355qwk3pFSdDTDoqX-rl-13" value="Calibrate the position of the system" style="ellipse;whiteSpace=wrap;html=1;" parent="1" vertex="1">
          <mxGeometry x="-50" y="740" width="120" height="80" as="geometry" />
        </mxCell>
        <mxCell id="Y8i0nsSM6AcdfNey4lcR-10" style="edgeStyle=orthogonalEdgeStyle;rounded=0;orthogonalLoop=1;jettySize=auto;html=1;exitX=0.5;exitY=0;exitDx=0;exitDy=0;entryX=0;entryY=0.5;entryDx=0;entryDy=0;" parent="1" source="Y8i0nsSM6AcdfNey4lcR-3" target="Y8i0nsSM6AcdfNey4lcR-7" edge="1">
          <mxGeometry relative="1" as="geometry" />
        </mxCell>
        <mxCell id="Y8i0nsSM6AcdfNey4lcR-11" value="No data in the table" style="edgeLabel;html=1;align=center;verticalAlign=middle;resizable=0;points=[];" parent="Y8i0nsSM6AcdfNey4lcR-10" vertex="1" connectable="0">
          <mxGeometry x="0.2133" y="-1" relative="1" as="geometry">
            <mxPoint x="-43" y="29" as="offset" />
          </mxGeometry>
        </mxCell>
        <mxCell id="Y8i0nsSM6AcdfNey4lcR-14" style="edgeStyle=orthogonalEdgeStyle;rounded=0;orthogonalLoop=1;jettySize=auto;html=1;entryX=0;entryY=0.5;entryDx=0;entryDy=0;" parent="1" source="Y8i0nsSM6AcdfNey4lcR-3" target="Y8i0nsSM6AcdfNey4lcR-12" edge="1">
          <mxGeometry relative="1" as="geometry">
            <mxPoint x="440" y="310" as="targetPoint" />
          </mxGeometry>
        </mxCell>
        <mxCell id="Y8i0nsSM6AcdfNey4lcR-15" value="&lt;div&gt;more than 1 data in the table&lt;/div&gt;" style="edgeLabel;html=1;align=center;verticalAlign=middle;resizable=0;points=[];" parent="Y8i0nsSM6AcdfNey4lcR-14" vertex="1" connectable="0">
          <mxGeometry x="-0.5833" y="4" relative="1" as="geometry">
            <mxPoint x="-4" y="9" as="offset" />
          </mxGeometry>
        </mxCell>
        <mxCell id="Y8i0nsSM6AcdfNey4lcR-3" value="Read data from the table" style="ellipse;whiteSpace=wrap;html=1;fillColor=#dae8fc;strokeColor=#6c8ebf;" parent="1" vertex="1">
          <mxGeometry x="370" y="140" width="140" height="80" as="geometry" />
        </mxCell>
        <mxCell id="Y8i0nsSM6AcdfNey4lcR-16" style="edgeStyle=orthogonalEdgeStyle;rounded=0;orthogonalLoop=1;jettySize=auto;html=1;entryX=0.5;entryY=0;entryDx=0;entryDy=0;" parent="1" source="Y8i0nsSM6AcdfNey4lcR-7" target="B72tMtw-QqEQN7ghL_KD-21" edge="1">
          <mxGeometry relative="1" as="geometry" />
        </mxCell>
        <mxCell id="Y8i0nsSM6AcdfNey4lcR-7" value="auto generate scanning points" style="ellipse;whiteSpace=wrap;html=1;fillColor=#d5e8d4;strokeColor=#82b366;" parent="1" vertex="1">
          <mxGeometry x="500" y="30" width="140" height="80" as="geometry" />
        </mxCell>
        <mxCell id="Y8i0nsSM6AcdfNey4lcR-17" style="edgeStyle=orthogonalEdgeStyle;rounded=0;orthogonalLoop=1;jettySize=auto;html=1;entryX=0.5;entryY=1;entryDx=0;entryDy=0;" parent="1" source="Y8i0nsSM6AcdfNey4lcR-12" target="B72tMtw-QqEQN7ghL_KD-21" edge="1">
          <mxGeometry relative="1" as="geometry" />
        </mxCell>
        <mxCell id="Y8i0nsSM6AcdfNey4lcR-12" value="Check if non-numeric values exists in the data" style="ellipse;whiteSpace=wrap;html=1;fillColor=#dae8fc;strokeColor=#6c8ebf;" parent="1" vertex="1">
          <mxGeometry x="500" y="270" width="140" height="80" as="geometry" />
        </mxCell>
        <mxCell id="Y8i0nsSM6AcdfNey4lcR-21" value="" style="edgeStyle=orthogonalEdgeStyle;rounded=0;orthogonalLoop=1;jettySize=auto;html=1;exitX=1;exitY=0.5;exitDx=0;exitDy=0;entryX=0;entryY=0.5;entryDx=0;entryDy=0;" parent="1" source="B72tMtw-QqEQN7ghL_KD-24" target="355qwk3pFSdDTDoqX-rl-1" edge="1">
          <mxGeometry relative="1" as="geometry">
            <mxPoint x="990" y="180" as="sourcePoint" />
            <mxPoint x="1193" y="180" as="targetPoint" />
          </mxGeometry>
        </mxCell>
        <mxCell id="Y8i0nsSM6AcdfNey4lcR-22" value="end of list" style="edgeLabel;html=1;align=center;verticalAlign=middle;resizable=0;points=[];" parent="Y8i0nsSM6AcdfNey4lcR-21" vertex="1" connectable="0">
          <mxGeometry x="-0.425" y="2" relative="1" as="geometry">
            <mxPoint x="17" y="2" as="offset" />
          </mxGeometry>
        </mxCell>
        <mxCell id="Y8i0nsSM6AcdfNey4lcR-25" style="edgeStyle=orthogonalEdgeStyle;rounded=0;orthogonalLoop=1;jettySize=auto;html=1;entryX=0;entryY=0.5;entryDx=0;entryDy=0;" parent="1" source="355qwk3pFSdDTDoqX-rl-1" target="Y8i0nsSM6AcdfNey4lcR-23" edge="1">
          <mxGeometry relative="1" as="geometry" />
        </mxCell>
        <mxCell id="355qwk3pFSdDTDoqX-rl-1" value="&lt;div&gt;Save the scanning point on the table&lt;/div&gt;" style="ellipse;whiteSpace=wrap;html=1;fillColor=#d5e8d4;strokeColor=#82b366;" parent="1" vertex="1">
          <mxGeometry x="1110" y="140" width="120" height="80" as="geometry" />
        </mxCell>
        <mxCell id="Y8i0nsSM6AcdfNey4lcR-26" style="edgeStyle=orthogonalEdgeStyle;rounded=0;orthogonalLoop=1;jettySize=auto;html=1;entryX=0;entryY=0.5;entryDx=0;entryDy=0;" parent="1" source="Y8i0nsSM6AcdfNey4lcR-23" target="B72tMtw-QqEQN7ghL_KD-28" edge="1">
          <mxGeometry relative="1" as="geometry" />
        </mxCell>
        <mxCell id="Y8i0nsSM6AcdfNey4lcR-23" value="Plot the points cloud" style="ellipse;whiteSpace=wrap;html=1;fillColor=#dae8fc;strokeColor=#6c8ebf;" parent="1" vertex="1">
          <mxGeometry x="1280" y="140" width="120" height="80" as="geometry" />
        </mxCell>
        <mxCell id="Y8i0nsSM6AcdfNey4lcR-27" value="" style="ellipse;whiteSpace=wrap;html=1;aspect=fixed;fillColor=#dae8fc;strokeColor=#6c8ebf;" parent="1" vertex="1">
          <mxGeometry x="-520" y="-130" width="30" height="30" as="geometry" />
        </mxCell>
        <mxCell id="Y8i0nsSM6AcdfNey4lcR-28" value="Tested and work in simulation (data from previous year)" style="text;html=1;strokeColor=none;fillColor=none;align=center;verticalAlign=middle;whiteSpace=wrap;rounded=0;" parent="1" vertex="1">
          <mxGeometry x="-470" y="-130" width="120" height="30" as="geometry" />
        </mxCell>
        <mxCell id="Y8i0nsSM6AcdfNey4lcR-29" value="" style="ellipse;whiteSpace=wrap;html=1;aspect=fixed;fillColor=#d5e8d4;strokeColor=#82b366;" parent="1" vertex="1">
          <mxGeometry x="-520" y="-40" width="30" height="30" as="geometry" />
        </mxCell>
        <mxCell id="Y8i0nsSM6AcdfNey4lcR-30" value="Done" style="text;html=1;strokeColor=none;fillColor=none;align=center;verticalAlign=middle;whiteSpace=wrap;rounded=0;" parent="1" vertex="1">
          <mxGeometry x="-490" y="-40" width="120" height="30" as="geometry" />
        </mxCell>
        <mxCell id="Y8i0nsSM6AcdfNey4lcR-32" value="" style="ellipse;whiteSpace=wrap;html=1;aspect=fixed;" parent="1" vertex="1">
          <mxGeometry x="-520" y="-175" width="30" height="30" as="geometry" />
        </mxCell>
        <mxCell id="Y8i0nsSM6AcdfNey4lcR-33" value="Working on" style="text;html=1;strokeColor=none;fillColor=none;align=center;verticalAlign=middle;whiteSpace=wrap;rounded=0;" parent="1" vertex="1">
          <mxGeometry x="-485" y="-175" width="120" height="30" as="geometry" />
        </mxCell>
        <mxCell id="Y8i0nsSM6AcdfNey4lcR-36" value="" style="ellipse;whiteSpace=wrap;html=1;aspect=fixed;fillColor=#fff2cc;strokeColor=#d6b656;" parent="1" vertex="1">
          <mxGeometry x="-520" y="-80" width="30" height="30" as="geometry" />
        </mxCell>
        <mxCell id="Y8i0nsSM6AcdfNey4lcR-37" value="Had tested on the robot, but issues appear" style="text;html=1;strokeColor=none;fillColor=none;align=center;verticalAlign=middle;whiteSpace=wrap;rounded=0;" parent="1" vertex="1">
          <mxGeometry x="-485" y="-80" width="165" height="30" as="geometry" />
        </mxCell>
        <mxCell id="Y8i0nsSM6AcdfNey4lcR-40" style="edgeStyle=orthogonalEdgeStyle;rounded=0;orthogonalLoop=1;jettySize=auto;html=1;" parent="1" source="Y8i0nsSM6AcdfNey4lcR-41" target="Y8i0nsSM6AcdfNey4lcR-42" edge="1">
          <mxGeometry relative="1" as="geometry" />
        </mxCell>
        <mxCell id="Y8i0nsSM6AcdfNey4lcR-41" value="Clear button" style="rounded=0;whiteSpace=wrap;html=1;fillColor=#d5e8d4;strokeColor=#82b366;" parent="1" vertex="1">
          <mxGeometry x="-280" y="-290" width="120" height="60" as="geometry" />
        </mxCell>
        <mxCell id="Y8i0nsSM6AcdfNey4lcR-42" value="clean the data in table" style="ellipse;whiteSpace=wrap;html=1;fillColor=#d5e8d4;strokeColor=#82b366;" parent="1" vertex="1">
          <mxGeometry x="-40" y="-300" width="120" height="80" as="geometry" />
        </mxCell>
        <mxCell id="Ul_W1ZWMkyRtXAM7nJT9-1" style="edgeStyle=orthogonalEdgeStyle;rounded=0;orthogonalLoop=1;jettySize=auto;html=1;entryX=0;entryY=0.5;entryDx=0;entryDy=0;" edge="1" parent="1" source="Ul_W1ZWMkyRtXAM7nJT9-2" target="Ul_W1ZWMkyRtXAM7nJT9-3">
          <mxGeometry relative="1" as="geometry" />
        </mxCell>
        <mxCell id="Ul_W1ZWMkyRtXAM7nJT9-2" value="&lt;div&gt;Stop button&lt;/div&gt;" style="rounded=0;whiteSpace=wrap;html=1;" vertex="1" parent="1">
          <mxGeometry x="-290" y="860" width="120" height="60" as="geometry" />
        </mxCell>
        <mxCell id="Ul_W1ZWMkyRtXAM7nJT9-3" value="Stop the system" style="ellipse;whiteSpace=wrap;html=1;" vertex="1" parent="1">
          <mxGeometry x="-50" y="850" width="120" height="80" as="geometry" />
        </mxCell>
      </root>
    </mxGraphModel>
  </diagram>
</mxfile>
